# xmcd CD database file
#
# Track frame offsets:
#	225
#	12905
#	27967
#	39686
#	53521
#	64350
#	78566
#	90983
#
# Disc length: 1471 seconds
#
# Revision: 0
# Processed by: cddbd v1.5.2PL0 Copyright (c) Steve Scherf et al.
# Submitted via: CDex 1.70beta2
#
DISCID=5c05bc08
DTITLE=Crowell, Lynne, Cdn. - NS - Barrington - I Don't Mind the Rain
DYEAR=1999
DGENRE=Country
TTITLE0=I Don't Mind the Rain
TTITLE1=Worn Hands
TTITLE2=Devil Himself
TTITLE3=Chosen Child's Lullaby
TTITLE4=What Will My Life Mean
TTITLE5=Foolish Ways
TTITLE6=My Little Cottage Home
TTITLE7=Whatever Love
EXTD=YEAR: 1999
EXTT0=
EXTT1=
EXTT2=
EXTT3=
EXTT4=
EXTT5=
EXTT6=
EXTT7=
PLAYORDER=
